<svg xmlns="http://www.w3.org/2000/svg" width="8" height="10" viewBox="0 0 8 10" class="itemComponents-base-rupeeBoldIcon"><path fill-rule="nonzero" d="M3.418 10 .898 5.604V4.568h.84c.336 0 .63-.047.882-.14.262-.103.476-.247.644-.434.178-.187.299-.41.364-.672H.898V2.286h2.716a1.694 1.694 0 0 0-.294-.644 1.289 1.289 0 0 0-.532-.434 1.678 1.678 0 0 0-.784-.168H.898V.004h6.314V1.04H5.014c.159.177.29.369.392.574.112.205.187.43.224.672h1.582v1.036H5.658c-.093.69-.36 1.232-.798 1.624-.438.383-1.003.644-1.694.784L5.91 10H3.418Z"/></svg>