<svg xmlns="http://www.w3.org/2000/svg" width="7" height="9" class="cartFillerProduct-base-rupeeIcon"><g clip-path="url(#a)"><path fill-rule="nonzero" d="M.967 4.7 3.5 9h1.255L2.19 4.883c.652-.09 1.174-.298 1.566-.624.4-.335.628-.8.685-1.395h1.591V2.08H4.418a1.912 1.912 0 0 0-.233-.746 2.012 2.012 0 0 0-.465-.55h2.313V0H.967v.783h.269c.416 0 .767.045 1.052.135.294.09.527.232.698.428.171.188.286.433.343.734H.967v.784H3.34c-.033.326-.135.583-.306.77-.171.188-.408.323-.71.404a4.134 4.134 0 0 1-1.089.123h-.27v.538Z"/></g><defs><clipPath id="a"><path fill-rule="nonzero" d="M0 0h7v9H0z"/></clipPath></defs></svg>