<svg width="7" height="9" viewBox="0 0 7 9" xmlns="http://www.w3.org/2000/svg" class="itemComponents-base-rupeeIcon "><g clip-path="url(#clip0_674_1209)"><path fill-rule="evenodd" clip-rule="evenodd" d="M0.966797 4.6993L3.27973 8.73777H4.52798L2.19057 4.88287C2.6647 4.81768 3.06996 4.69005 3.40632 4.5H7V3.5H4.29767C4.37186 3.30767 4.42008 3.09555 4.44231 2.86364H6.03325V2.08042H4.41785C4.38521 1.79487 4.30771 1.54604 4.18531 1.33392C4.06295 1.12179 3.90795 0.938227 3.72028 0.783217H6.03325V0H0.966797V0.783217H1.23603C1.65211 0.783217 2.00293 0.82809 2.28848 0.917833C2.58218 1.00758 2.8147 1.15035 2.98603 1.34615C3.15736 1.5338 3.27158 1.77855 3.32868 2.08042H0.966797V2.86364H3.34091C3.3155 3.11784 3.24801 3.32996 3.13843 3.5H0V4.5H0.966797V4.6993Z"/></g><defs><clipPath id="clip0_674_1209"><rect width="7" height="9"/></clipPath></defs></svg>